<svg xmlns="http://www.w3.org/2000/svg" xmlns:xlink="http://www.w3.org/1999/xlink" width="500" zoomAndPan="magnify" viewBox="0 0 375 374.999991" height="500" preserveAspectRatio="xMidYMid meet" version="1.0"><defs><g/><clipPath id="id1"><path d="M 247 197 L 248 197 L 248 199 L 247 199 Z M 247 197 " clip-rule="nonzero"/></clipPath><clipPath id="id2"><path d="M 17.164062 124.558594 L 345.269531 97.140625 L 358.074219 250.359375 L 29.964844 277.777344 Z M 17.164062 124.558594 " clip-rule="nonzero"/></clipPath><clipPath id="id3"><path d="M 17.164062 124.558594 L 345.269531 97.140625 L 358.074219 250.359375 L 29.964844 277.777344 Z M 17.164062 124.558594 " clip-rule="nonzero"/></clipPath><clipPath id="id4"><path d="M 161 225 L 162 225 L 162 226 L 161 226 Z M 161 225 " clip-rule="nonzero"/></clipPath><clipPath id="id5"><path d="M 17.164062 124.558594 L 345.269531 97.140625 L 358.074219 250.359375 L 29.964844 277.777344 Z M 17.164062 124.558594 " clip-rule="nonzero"/></clipPath><clipPath id="id6"><path d="M 17.164062 124.558594 L 345.269531 97.140625 L 358.074219 250.359375 L 29.964844 277.777344 Z M 17.164062 124.558594 " clip-rule="nonzero"/></clipPath><clipPath id="id7"><path d="M 114 245 L 115 245 L 115 246 L 114 246 Z M 114 245 " clip-rule="nonzero"/></clipPath><clipPath id="id8"><path d="M 17.164062 124.558594 L 345.269531 97.140625 L 358.074219 250.359375 L 29.964844 277.777344 Z M 17.164062 124.558594 " clip-rule="nonzero"/></clipPath><clipPath id="id9"><path d="M 17.164062 124.558594 L 345.269531 97.140625 L 358.074219 250.359375 L 29.964844 277.777344 Z M 17.164062 124.558594 " clip-rule="nonzero"/></clipPath><clipPath id="id10"><path d="M 28 187 L 245 187 L 245 276 L 28 276 Z M 28 187 " clip-rule="nonzero"/></clipPath><clipPath id="id11"><path d="M 17.164062 124.558594 L 345.269531 97.140625 L 358.074219 250.359375 L 29.964844 277.777344 Z M 17.164062 124.558594 " clip-rule="nonzero"/></clipPath><clipPath id="id12"><path d="M 17.164062 124.558594 L 345.269531 97.140625 L 358.074219 250.359375 L 29.964844 277.777344 Z M 17.164062 124.558594 " clip-rule="nonzero"/></clipPath><clipPath id="id13"><path d="M 23.175781 196.515625 L 244.074219 178.054688 L 250.875 259.417969 L 29.976562 277.878906 Z M 23.175781 196.515625 " clip-rule="nonzero"/></clipPath><clipPath id="id14"><path d="M 23.175781 196.515625 L 244.074219 178.054688 L 250.859375 259.246094 L 29.960938 277.707031 Z M 23.175781 196.515625 " clip-rule="nonzero"/></clipPath><clipPath id="id15"><path d="M 330 209 L 331 209 L 331 210 L 330 210 Z M 330 209 " clip-rule="nonzero"/></clipPath><clipPath id="id16"><path d="M 17.164062 124.558594 L 345.269531 97.140625 L 358.074219 250.359375 L 29.964844 277.777344 Z M 17.164062 124.558594 " clip-rule="nonzero"/></clipPath><clipPath id="id17"><path d="M 17.164062 124.558594 L 345.269531 97.140625 L 358.074219 250.359375 L 29.964844 277.777344 Z M 17.164062 124.558594 " clip-rule="nonzero"/></clipPath><clipPath id="id18"><path d="M 231 105 L 346 105 L 346 208 L 231 208 Z M 231 105 " clip-rule="nonzero"/></clipPath><clipPath id="id19"><path d="M 17.164062 124.558594 L 345.269531 97.140625 L 358.074219 250.359375 L 29.964844 277.777344 Z M 17.164062 124.558594 " clip-rule="nonzero"/></clipPath><clipPath id="id20"><path d="M 17.164062 124.558594 L 345.269531 97.140625 L 358.074219 250.359375 L 29.964844 277.777344 Z M 17.164062 124.558594 " clip-rule="nonzero"/></clipPath></defs><g clip-path="url(#id1)"><g clip-path="url(#id2)"><g clip-path="url(#id3)"><path fill="#ffffff" d="M 247.601562 198.011719 L 247.589844 197.976562 L 247.585938 197.980469 Z M 247.601562 198.011719 " fill-opacity="1" fill-rule="nonzero"/></g></g></g><g clip-path="url(#id4)"><g clip-path="url(#id5)"><g clip-path="url(#id6)"><path fill="#ffffff" d="M 161.109375 225.898438 L 161.113281 225.898438 C 161.101562 225.875 161.085938 225.84375 161.074219 225.820312 L 161.066406 225.820312 C 161.082031 225.847656 161.097656 225.875 161.109375 225.898438 " fill-opacity="1" fill-rule="nonzero"/></g></g></g><g clip-path="url(#id7)"><g clip-path="url(#id8)"><g clip-path="url(#id9)"><path fill="#ffffff" d="M 114.230469 245.070312 C 114.230469 245.078125 114.238281 245.082031 114.238281 245.082031 L 114.234375 245.070312 L 114.230469 245.070312 " fill-opacity="1" fill-rule="nonzero"/></g></g></g><g clip-path="url(#id10)"><g clip-path="url(#id11)"><g clip-path="url(#id12)"><g clip-path="url(#id13)"><g clip-path="url(#id14)"><path fill="#ffffff" d="M 30.160156 263.25 C 31.113281 265.113281 32.414062 266.820312 33.933594 268.238281 C 35.457031 269.652344 37.175781 270.773438 38.9375 271.652344 C 42.476562 273.402344 46.148438 274.261719 49.730469 274.726562 C 53.324219 275.175781 56.859375 275.234375 60.347656 275.09375 C 63.832031 274.953125 67.261719 274.570312 70.652344 274.078125 C 77.4375 273.078125 84.0625 271.558594 90.558594 269.714844 C 93.804688 268.785156 97.023438 267.796875 100.207031 266.714844 C 103.394531 265.648438 106.554688 264.503906 109.6875 263.304688 C 114.578125 261.4375 119.402344 259.429688 124.175781 257.3125 C 127.261719 255.945312 130.332031 254.527344 133.382812 253.082031 C 137.683594 251.039062 141.949219 248.925781 146.183594 246.777344 C 153.269531 243.164062 160.28125 239.433594 167.246094 235.640625 C 170.074219 234.101562 172.894531 232.550781 175.710938 230.996094 C 177.582031 229.964844 179.453125 228.929688 181.316406 227.890625 C 192.917969 221.433594 204.441406 214.847656 215.886719 208.117188 C 223.523438 203.609375 231.210938 199.046875 238.792969 194.429688 C 240.179688 193.585938 242.453125 192.183594 243.964844 191.25 C 244.976562 190.625 245.050781 189.148438 244.074219 188.476562 C 244.019531 188.4375 243.964844 188.402344 243.90625 188.378906 C 242.429688 187.636719 240.667969 187.761719 239.308594 188.699219 C 238.511719 189.246094 237.664062 189.835938 237.058594 190.253906 C 229.558594 195.46875 221.949219 200.519531 214.207031 205.367188 C 203.003906 212.394531 191.554688 219.035156 179.84375 225.167969 C 179.023438 225.601562 178.203125 226.023438 177.378906 226.445312 C 176.960938 226.667969 176.542969 226.878906 176.125 227.089844 C 175.9375 227.1875 175.746094 227.28125 175.5625 227.375 C 175.28125 227.519531 174.992188 227.667969 174.710938 227.808594 C 174.429688 227.953125 174.15625 228.09375 173.875 228.234375 C 173.664062 228.34375 173.453125 228.449219 173.242188 228.554688 C 172.742188 228.804688 172.234375 229.058594 171.734375 229.3125 C 171.726562 229.308594 171.722656 229.316406 171.714844 229.316406 C 170.988281 229.675781 170.265625 230.03125 169.542969 230.390625 C 168.820312 230.746094 168.070312 231.039062 167.34375 231.390625 C 166.617188 231.742188 165.890625 232.085938 165.136719 232.382812 L 165.121094 232.386719 C 158.21875 235.953125 151.066406 238.910156 143.921875 241.882812 C 138.894531 243.976562 133.804688 245.914062 128.753906 247.914062 L 128.742188 247.921875 C 125.578125 249.175781 122.414062 250.429688 119.164062 251.441406 C 119.160156 251.445312 119.160156 251.445312 119.15625 251.445312 L 119.121094 251.460938 C 115.128906 253.042969 111.035156 254.355469 106.972656 255.703125 C 105.417969 256.214844 103.871094 256.746094 102.3125 257.238281 C 100.753906 257.730469 99.203125 258.230469 97.636719 258.703125 C 94.511719 259.640625 91.390625 260.570312 88.25 261.410156 C 81.976562 263.101562 75.671875 264.59375 69.359375 265.617188 C 66.199219 266.128906 63.042969 266.492188 59.910156 266.699219 C 56.777344 266.902344 53.667969 266.914062 50.675781 266.605469 C 47.691406 266.296875 44.804688 265.691406 42.359375 264.566406 C 39.910156 263.445312 37.984375 261.855469 36.785156 259.734375 C 35.566406 257.628906 35.101562 254.945312 35.199219 252.082031 C 35.300781 249.210938 35.957031 246.210938 36.871094 243.246094 C 37.792969 240.273438 39.007812 237.328125 40.378906 234.433594 C 41.734375 231.527344 43.273438 228.679688 44.894531 225.859375 C 48.148438 220.230469 51.804688 214.773438 55.625 209.414062 C 59.457031 204.0625 63.480469 198.8125 67.585938 193.605469 L 66.871094 192.957031 C 62.046875 197.53125 57.402344 202.3125 52.984375 207.316406 C 48.5625 212.316406 44.363281 217.554688 40.53125 223.109375 C 36.730469 228.683594 33.230469 234.558594 30.722656 241.121094 C 29.484375 244.40625 28.511719 247.886719 28.171875 251.628906 C 28.003906 253.5 28.011719 255.441406 28.316406 257.417969 C 28.609375 259.382812 29.210938 261.382812 30.160156 263.25 " fill-opacity="1" fill-rule="nonzero"/></g></g></g></g></g><g clip-path="url(#id15)"><g clip-path="url(#id16)"><g clip-path="url(#id17)"><path fill="#ffffff" d="M 330.363281 209.21875 C 330.367188 209.230469 330.371094 209.238281 330.367188 209.242188 C 330.375 209.253906 330.378906 209.265625 330.382812 209.273438 L 330.46875 209.203125 C 330.433594 209.207031 330.398438 209.210938 330.363281 209.21875 " fill-opacity="1" fill-rule="nonzero"/></g></g></g><g clip-path="url(#id18)"><g clip-path="url(#id19)"><g clip-path="url(#id20)"><path fill="#ffffff" d="M 232.5625 173.9375 L 240.820312 178.136719 L 243.054688 179.273438 C 243.054688 179.273438 248.492188 182.039062 248.53125 182.0625 C 249.789062 182.699219 250.949219 183.550781 251.71875 184.742188 C 252.398438 185.792969 252.671875 187.015625 253.015625 188.199219 C 253.542969 190.03125 254.074219 191.863281 254.605469 193.695312 L 254.609375 193.710938 L 257.597656 204.042969 C 258.003906 205.429688 259.164062 205.863281 260.195312 205.007812 C 261.226562 204.152344 262.007812 202.265625 261.921875 200.820312 L 261.238281 189.515625 L 261.234375 189.507812 L 260.757812 181.917969 L 271.148438 173.933594 L 271.90625 173.351562 L 271.917969 173.34375 L 301.5 150.617188 L 301.886719 151.917969 L 301.886719 151.921875 L 301.898438 151.941406 L 302.011719 151.914062 L 304.644531 159.5625 L 304.664062 159.609375 L 319.023438 205.890625 C 319.332031 206.855469 319.902344 207.464844 320.621094 207.179688 L 320.660156 207.167969 C 320.929688 207.058594 321.234375 206.894531 321.523438 206.65625 L 326.164062 202.796875 C 327.246094 201.90625 328.015625 200.054688 327.851562 198.664062 L 326.332031 185.5 C 326.679688 185.410156 326.902344 185.113281 327.191406 184.867188 L 329.230469 183.175781 L 329.78125 182.722656 C 330.863281 181.828125 331.269531 180.4375 330.375 179.359375 L 329.722656 178.574219 C 329.433594 178.226562 329.046875 177.953125 328.613281 177.769531 C 327.703125 177.378906 326.597656 177.394531 325.867188 178.003906 L 325.398438 178.390625 L 324.160156 166.914062 C 324.507812 166.824219 324.960938 166.808594 325.25 166.570312 L 326.324219 165.679688 L 327.765625 164.484375 C 328.84375 163.589844 329.003906 161.929688 328.105469 160.851562 L 327.457031 160.066406 C 326.871094 159.363281 325.855469 158.925781 324.921875 158.957031 C 324.421875 158.96875 323.945312 159.121094 323.570312 159.429688 L 323.179688 159.75 L 321.726562 146.804688 L 321.660156 146.222656 L 320.640625 137.144531 L 320.492188 135.867188 L 335.464844 124.644531 L 335.582031 124.554688 C 339.003906 121.914062 344.277344 115.082031 345.636719 110.261719 C 346.101562 108.613281 346.109375 107.199219 345.425781 106.269531 C 344.785156 105.402344 343.601562 105.039062 342.097656 105.042969 C 337.320312 105.035156 329.363281 108.695312 325.867188 111.398438 C 325.804688 111.445312 320.609375 116.058594 313.027344 122.824219 C 312.78125 123.042969 312.535156 123.269531 312.28125 123.492188 C 311.898438 123.832031 311.507812 124.183594 311.109375 124.535156 L 310.292969 124.28125 L 309.75 124.109375 L 302.242188 121.761719 L 287.929688 117.285156 L 288.324219 116.964844 C 289.40625 116.066406 289.617188 114.476562 288.726562 113.398438 L 288.074219 112.613281 C 287.175781 111.53125 285.765625 111.6875 284.6875 112.578125 L 282.171875 114.664062 C 281.882812 114.902344 281.5 115.007812 281.347656 115.332031 L 270.011719 111.652344 L 270.476562 111.269531 C 271.554688 110.375 271.832031 108.824219 270.933594 107.746094 L 270.28125 106.960938 C 269.390625 105.882812 267.640625 105.65625 266.5625 106.550781 L 263.964844 108.699219 C 263.675781 108.941406 263.460938 109.242188 263.308594 109.5625 L 250.625 105.609375 C 249.289062 105.191406 247.234375 105.492188 246.15625 106.390625 L 241.515625 110.234375 C 240.433594 111.125 240.636719 112.488281 241.875 113.148438 L 282.984375 135.109375 L 291.265625 139.535156 L 293.199219 140.570312 C 292.640625 141.066406 292.078125 141.566406 291.519531 142.070312 C 276.164062 155.777344 260.285156 169.953125 254.792969 174.859375 L 247.765625 173.097656 L 239.808594 171.097656 L 236.527344 170.273438 C 235.125 169.921875 233.132812 170.335938 232.101562 171.1875 C 231.066406 172.046875 231.277344 173.28125 232.5625 173.9375 " fill-opacity="1" fill-rule="nonzero"/></g></g></g><g fill="#000000" fill-opacity="1"><g transform="translate(68.479373, 211.094261)"><g><path d="M 3.457031 -97.921875 C 1.585938 -97.921875 0.574219 -96.910156 0.574219 -95.039062 L 0.574219 -81.214844 C 0.574219 -79.34375 1.585938 -78.335938 3.457031 -78.335938 L 41.472656 -78.335938 C 32.832031 -74.664062 27.070312 -64.296875 27.070312 -51.121094 L 27.070312 -2.878906 C 27.070312 -1.007812 28.078125 0 29.953125 0 L 45.792969 0 C 47.664062 0 48.671875 -1.007812 48.671875 -2.878906 L 48.671875 -78.335938 L 72.289062 -78.335938 C 74.160156 -78.335938 75.167969 -79.34375 75.167969 -81.214844 L 75.167969 -95.039062 C 75.167969 -96.910156 74.160156 -97.921875 72.289062 -97.921875 Z M 3.457031 -97.921875 "/></g></g></g><g fill="#000000" fill-opacity="1"><g transform="translate(144.367338, 211.094261)"><g><path d="M 10.078125 -97.921875 C 8.207031 -97.921875 7.199219 -96.910156 7.199219 -95.039062 L 7.199219 -81.214844 C 7.199219 -79.34375 8.207031 -78.335938 10.078125 -78.335938 L 22.96875 -78.335938 C 13.535156 -74.664062 7.199219 -64.726562 7.199219 -49.679688 L 7.199219 -2.878906 C 7.199219 -1.007812 8.207031 0 10.078125 0 L 25.921875 0 C 27.792969 0 28.800781 -1.007812 28.800781 -2.878906 L 28.800781 -54.648438 C 32.257812 -46.367188 41.183594 -40.753906 54.71875 -40.753906 L 59.617188 -40.753906 C 61.488281 -40.753906 62.496094 -41.761719 62.496094 -43.632812 L 62.496094 -57.457031 C 62.496094 -59.328125 61.488281 -60.335938 59.617188 -60.335938 L 28.800781 -60.335938 L 28.800781 -78.335938 L 61.054688 -78.335938 C 62.929688 -78.335938 63.9375 -79.34375 63.9375 -81.214844 L 63.9375 -95.039062 C 63.9375 -96.910156 62.929688 -97.921875 61.054688 -97.921875 Z M 10.078125 -97.921875 "/></g></g></g></svg>