<svg xmlns="http://www.w3.org/2000/svg" xmlns:xlink="http://www.w3.org/1999/xlink" width="500" zoomAndPan="magnify" viewBox="0 0 375 374.999991" height="500" preserveAspectRatio="xMidYMid meet" version="1.0"><defs><clipPath id="id1"><path d="M 40 26 L 336 26 L 336 318 L 40 318 Z M 40 26 " clip-rule="nonzero"/></clipPath><clipPath id="id2"><path d="M 187.683594 -20.957031 L 380.011719 314.003906 L 192.042969 421.929688 L -0.285156 86.972656 Z M 187.683594 -20.957031 " clip-rule="nonzero"/></clipPath><clipPath id="id3"><path d="M 187.683594 -20.957031 L 380.011719 314.003906 L 131.558594 456.664062 L -60.773438 121.703125 Z M 187.683594 -20.957031 " clip-rule="nonzero"/></clipPath></defs><g clip-path="url(#id1)"><g clip-path="url(#id2)"><g clip-path="url(#id3)"><path fill="#4f46e5" d="M 293.097656 235.425781 C 278.273438 226.8125 265.167969 220.148438 250.496094 213.4375 L 223.359375 41.996094 C 223.183594 40.882812 222.519531 39.90625 221.542969 39.339844 L 200.582031 27.160156 C 198.207031 25.78125 195.207031 27.34375 194.980469 30.082031 L 182.125 184.324219 C 160.09375 175.089844 133.292969 163.722656 98.777344 148.480469 L 77.523438 77.925781 C 77.0625 76.402344 76.042969 75.113281 74.667969 74.316406 L 57.546875 64.363281 C 53.625 62.082031 48.660156 64.605469 48.1875 69.113281 L 40.121094 145.746094 C 39.375 152.859375 42.871094 159.75 49.058594 163.34375 L 315.761719 314.222656 C 347.460938 332.648438 340.140625 262.757812 293.097656 235.425781 " fill-opacity="1" fill-rule="nonzero"/></g></g></g></svg>