<svg xmlns="http://www.w3.org/2000/svg" xmlns:xlink="http://www.w3.org/1999/xlink" width="500" zoomAndPan="magnify" viewBox="0 0 375 374.999991" height="500" preserveAspectRatio="xMidYMid meet" version="1.0"><defs><clipPath id="id1"><path d="M 5 82.332031 L 353 82.332031 L 353 291 L 5 291 Z M 5 82.332031 " clip-rule="nonzero"/></clipPath></defs><g clip-path="url(#id1)"><path fill="#4f46e5" d="M 266.824219 117.535156 C 252.40625 125.855469 240.460938 133.671875 227.71875 142.785156 L 70.246094 82.730469 C 69.226562 82.339844 68.082031 82.429688 67.132812 82.976562 L 46.746094 94.738281 C 44.4375 96.070312 44.300781 99.355469 46.496094 100.871094 L 170.148438 186.289062 C 151.726562 200.378906 129.195312 217.453125 99.675781 239.152344 L 29.996094 222.933594 C 28.492188 222.585938 26.914062 222.820312 25.574219 223.589844 L 8.917969 233.203125 C 5.101562 235.402344 4.824219 240.800781 8.394531 243.378906 L 69.015625 287.234375 C 74.644531 291.304688 82.136719 291.6875 88.152344 288.21875 L 344.128906 136.554688 C 374.964844 118.765625 312.582031 91.136719 266.824219 117.535156 " fill-opacity="1" fill-rule="nonzero"/></g></svg>